<svg width="192" height="31" viewBox="0 0 192 31" fill="none" xmlns="http://www.w3.org/2000/svg">
<path d="M21.3645 6.31851L12.137 30.738H10.2042L3.0966 4.21947L0 3.09721V2.28669H11.3265V3.09721L7.77268 4.1779L13.3008 25.4177L12.2617 25.5008L20.8657 1.95417H22.8816L32.2337 25.9788L30.6543 26.5192L35.8499 4.19869L32.3169 3.09721V2.28669H41.004V3.09721L37.9697 4.19869L31.3193 30.738H29.3865L19.9513 6.9212L21.3645 6.31851Z" fill="#202020"/>
<path d="M49.3881 29.2209C50.3718 29.2209 51.2308 28.9646 51.9652 28.4519C52.6995 27.9254 53.2745 27.1218 53.6901 26.0412C54.1058 24.9466 54.3136 23.5403 54.3136 21.8223C54.3136 19.9519 54.1058 18.3862 53.6901 17.1254C53.2883 15.8646 52.7133 14.9156 51.9652 14.2782C51.217 13.627 50.3095 13.3014 49.2426 13.3014C48.2728 13.3014 47.4207 13.5578 46.6864 14.0704C45.9521 14.583 45.3771 15.3866 44.9614 16.4812C44.5458 17.5619 44.338 18.9612 44.338 20.6793C44.338 22.5358 44.5389 24.1015 44.9407 25.3761C45.3425 26.6369 45.9244 27.5929 46.6864 28.2441C47.4484 28.8953 48.349 29.2209 49.3881 29.2209ZM49.2219 30.8627C47.393 30.8627 45.7789 30.4678 44.3795 29.6781C42.9802 28.8745 41.8856 27.7661 41.0959 26.3529C40.32 24.9258 39.9321 23.2909 39.9321 21.4482C39.9321 19.5501 40.3408 17.8667 41.1582 16.398C41.9895 14.9156 43.1187 13.7517 44.5458 12.9066C45.9729 12.0614 47.5939 11.6388 49.4089 11.6388C51.2655 11.6388 52.8865 12.0406 54.272 12.8442C55.6714 13.634 56.759 14.7354 57.5349 16.1487C58.3246 17.5619 58.7195 19.1968 58.7195 21.0533C58.7195 22.9515 58.3038 24.6418 57.4725 26.1243C56.6412 27.6068 55.5121 28.7706 54.085 29.6158C52.6579 30.4471 51.0369 30.8627 49.2219 30.8627Z" fill="#202020"/>
<path d="M73.7456 11.7843C74.4938 11.7843 75.0341 11.9783 75.3666 12.3662C75.713 12.7542 75.8862 13.2391 75.8862 13.821C75.8862 14.5692 75.6507 15.158 75.1796 15.5875C74.7085 16.017 74.1128 16.2318 73.3923 16.2318C73.0044 16.2318 72.6441 16.1764 72.3116 16.0655C71.9929 15.9408 71.6604 15.83 71.314 15.733C70.9815 15.6222 70.6074 15.5667 70.1918 15.5667C69.8593 15.5667 69.5129 15.6152 69.1527 15.7122C68.7924 15.7954 68.4391 15.927 68.0928 16.1071C67.7464 16.2734 67.4277 16.4742 67.1367 16.7098L66.7419 15.8577C67.5732 15.1234 68.3283 14.4999 69.0072 13.9873C69.6999 13.4746 70.3234 13.059 70.8776 12.7403C71.4457 12.4078 71.9652 12.1653 72.4363 12.0129C72.9074 11.8605 73.3438 11.7843 73.7456 11.7843ZM67.6979 15.5667V28.639L70.8153 29.6365V30.4055H60.7357V29.6365L63.6661 28.6805V16.0655C63.4721 15.8438 63.2366 15.6499 62.9595 15.4836C62.6962 15.3035 62.3775 15.1234 62.0035 14.9433C61.6294 14.7632 61.1999 14.5761 60.7149 14.3821V13.8002L66.9705 11.6181H67.4277L67.6979 15.5667Z" fill="#202020"/>
<path d="M83.0831 28.6805L86.0758 29.6365V30.4055H76.1418V29.6365L79.0721 28.6805V5.17546C78.8781 4.96764 78.6357 4.75289 78.3447 4.53121C78.0538 4.30953 77.7005 4.08092 77.2848 3.84538C76.8692 3.60985 76.3912 3.37431 75.8508 3.13878V2.57764L82.8545 0.665649H83.3118L83.0831 4.36495V28.6805Z" fill="#202020"/>
<path d="M101.852 17.3956C101.852 16.2318 101.471 15.2758 100.709 14.5276C99.947 13.7656 98.8663 13.3846 97.4669 13.3846C96.3308 13.3846 95.361 13.6825 94.5574 14.2782C93.7677 14.8601 93.165 15.7192 92.7493 16.8553C92.3337 17.9775 92.1258 19.3492 92.1258 20.9702C92.1258 22.5635 92.3475 23.9006 92.7909 24.9812C93.2481 26.0619 93.8854 26.8725 94.7029 27.4128C95.5203 27.9532 96.4832 28.2233 97.5916 28.2233C98.5476 28.2233 99.469 28.0709 100.356 27.7661C101.242 27.4613 102.101 26.9764 102.933 26.3113L102.974 27.7453C102.046 28.3688 101.242 28.8884 100.564 29.304C99.8847 29.7197 99.275 30.0383 98.7347 30.26C98.2082 30.4817 97.7094 30.6341 97.2383 30.7172C96.7673 30.8142 96.2893 30.8627 95.8043 30.8627C94.0586 30.8627 92.583 30.4955 91.3777 29.7612C90.1723 29.0269 89.2578 28.0086 88.6344 26.7062C88.0247 25.39 87.7199 23.8798 87.7199 22.1756C87.7199 20.513 87.9901 19.0305 88.5304 17.7281C89.0708 16.4258 89.812 15.3243 90.7542 14.4237C91.7102 13.5093 92.7978 12.8165 94.017 12.3454C95.2501 11.8744 96.5525 11.6388 97.9242 11.6388C98.6308 11.6388 99.3166 11.6943 99.9816 11.8051C100.661 11.9159 101.353 12.0891 102.06 12.3247C102.78 12.5602 103.529 12.8719 104.304 13.2599L101.852 14.1327V4.7806C101.672 4.57277 101.436 4.37187 101.145 4.1779C100.868 3.98393 100.543 3.78996 100.169 3.59599C99.8084 3.38817 99.4205 3.19419 99.0049 3.01408V2.49452L105.676 0.665649H106.112L105.863 4.34416V27.4128C106.002 27.5514 106.175 27.6899 106.383 27.8285C106.604 27.967 106.84 28.1056 107.089 28.2441C107.353 28.3688 107.609 28.4796 107.858 28.5766C108.121 28.6736 108.371 28.7498 108.606 28.8052V29.4495L102.642 30.8211H102.185L101.852 27.6206V17.3956Z" fill="#202020"/>
<path d="M137.537 10.2672C137.537 8.99253 137.267 7.91184 136.727 7.02511C136.2 6.13839 135.334 5.46642 134.129 5.00921C132.937 4.53813 131.323 4.3026 129.286 4.3026H123.322L123.53 2.28669H131.552C134.073 2.28669 136.103 2.63307 137.641 3.32582C139.193 4.00471 140.322 4.933 141.028 6.11068C141.749 7.28836 142.109 8.60459 142.109 10.0594C142.109 11.5419 141.742 12.9066 141.008 14.1535C140.273 15.4005 139.13 16.398 137.579 17.1462C136.027 17.8944 134.018 18.2685 131.552 18.2685H123.53L123.322 16.2526H131.281C132.487 16.2526 133.554 16.024 134.482 15.5667C135.424 15.1095 136.165 14.4376 136.706 13.5508C137.26 12.6641 137.537 11.5696 137.537 10.2672ZM126.73 2.28669V28.5143L129.993 29.595V30.4055H118.999V29.595L122.262 28.5143V4.1779L118.999 3.09721V2.28669H126.73Z" fill="#202020"/>
<path d="M151.117 11.6388C152.558 11.6388 153.798 11.9506 154.837 12.5741C155.876 13.1975 156.701 14.105 157.31 15.2966C157.92 16.4742 158.301 17.9082 158.453 19.5986H145.443L145.485 18.123L156.188 17.6658L154.318 18.6218C154.221 17.4995 154.034 16.5435 153.757 15.7538C153.479 14.9502 153.091 14.3406 152.593 13.9249C152.094 13.5093 151.464 13.3014 150.701 13.3014C149.829 13.3014 149.053 13.5508 148.374 14.0496C147.709 14.5484 147.189 15.3104 146.815 16.3357C146.441 17.3471 146.254 18.6287 146.254 20.1805C146.254 21.8015 146.545 23.187 147.127 24.337C147.709 25.4731 148.519 26.339 149.558 26.9348C150.611 27.5306 151.851 27.8285 153.279 27.8285C153.86 27.8285 154.415 27.7592 154.941 27.6206C155.481 27.4821 156.008 27.2743 156.521 26.9972C157.047 26.7062 157.553 26.346 158.038 25.9165L158.599 26.5607C157.865 27.5167 157.102 28.3134 156.313 28.9507C155.537 29.588 154.713 30.066 153.84 30.3847C152.981 30.7034 152.045 30.8627 151.034 30.8627C149.33 30.8627 147.82 30.4678 146.503 29.6781C145.187 28.8745 144.155 27.773 143.407 26.3737C142.672 24.9743 142.305 23.3602 142.305 21.5313C142.305 19.7302 142.652 18.0814 143.344 16.5851C144.037 15.0887 145.042 13.8903 146.358 12.9897C147.674 12.0891 149.261 11.6388 151.117 11.6388Z" fill="#202020"/>
<path d="M172.068 18.7673L172.318 20.2428C170.794 20.6169 169.554 20.991 168.598 21.3651C167.642 21.7392 166.893 22.1271 166.353 22.5289C165.827 22.9307 165.459 23.3533 165.252 23.7966C165.058 24.24 164.961 24.7319 164.961 25.2722C164.961 26.2282 165.224 26.9487 165.75 27.4336C166.277 27.9185 166.921 28.161 167.683 28.161C168.293 28.161 168.84 28.0155 169.325 27.7245C169.81 27.4197 170.198 27.0179 170.489 26.5192C170.78 26.0065 170.925 25.4454 170.925 24.8358V16.9176C170.925 15.9339 170.662 15.1511 170.135 14.5692C169.623 13.9873 168.792 13.6963 167.642 13.6963C167.198 13.6963 166.713 13.7517 166.187 13.8626C165.66 13.9734 165.168 14.1397 164.711 14.3614L165.688 13.2807C165.619 13.821 165.542 14.3129 165.459 14.7562C165.376 15.1996 165.279 15.5806 165.168 15.8993C165.058 16.2179 164.926 16.4673 164.774 16.6474C164.552 16.883 164.261 17.07 163.901 17.2086C163.54 17.3333 163.173 17.3956 162.799 17.3956C162.3 17.3956 161.912 17.2917 161.635 17.0839C161.358 16.876 161.22 16.592 161.22 16.2318C161.22 15.7469 161.455 15.2412 161.926 14.7147C162.397 14.1882 163.021 13.7032 163.797 13.2599C164.586 12.8165 165.459 12.4563 166.415 12.1792C167.385 11.9021 168.362 11.7635 169.346 11.7635C170.717 11.7635 171.812 11.9714 172.629 12.387C173.461 12.8027 174.056 13.3984 174.417 14.1743C174.777 14.9502 174.957 15.8785 174.957 16.9592V26.6854C174.957 27.0872 175.012 27.4267 175.123 27.7038C175.248 27.967 175.421 28.1679 175.643 28.3065C175.878 28.4311 176.162 28.4935 176.495 28.4935C176.814 28.4935 177.153 28.4381 177.513 28.3272C177.873 28.2025 178.234 28.0294 178.594 27.8077V28.826C177.915 29.5188 177.215 30.0314 176.495 30.3639C175.788 30.6826 175.116 30.8419 174.479 30.8419C173.703 30.8419 173.059 30.6826 172.546 30.3639C172.034 30.0314 171.646 29.5603 171.382 28.9507C171.133 28.3411 171.008 27.6206 171.008 26.7893L171.154 26.6439C170.932 27.5029 170.565 28.251 170.052 28.8884C169.554 29.5118 168.951 29.9968 168.244 30.3431C167.551 30.6895 166.796 30.8627 165.979 30.8627C164.51 30.8627 163.305 30.4609 162.363 29.6573C161.421 28.8537 160.95 27.683 160.95 26.1451C160.95 25.3553 161.102 24.6418 161.407 24.0045C161.725 23.3533 162.287 22.7437 163.09 22.1756C163.894 21.6075 165.023 21.0464 166.478 20.4922C167.932 19.938 169.796 19.363 172.068 18.7673Z" fill="#202020"/>
<path d="M186.389 11.6388C187.289 11.6388 188.086 11.722 188.779 11.8882C189.471 12.0545 190.233 12.3316 191.065 12.7195L191.418 17.7697H190.441L188.134 12.6364L189.672 14.3821C189.118 13.9526 188.585 13.634 188.072 13.4261C187.573 13.2183 187.033 13.1144 186.451 13.1144C185.384 13.1144 184.553 13.3361 183.957 13.7794C183.375 14.2228 183.084 14.8463 183.084 15.6499C183.084 16.2456 183.244 16.7514 183.562 17.167C183.881 17.5827 184.352 17.9567 184.975 18.2893C185.599 18.6218 186.368 18.9682 187.282 19.3284C187.975 19.5916 188.606 19.8964 189.174 20.2428C189.755 20.5753 190.254 20.9702 190.67 21.4274C191.086 21.8846 191.411 22.4111 191.647 23.0069C191.882 23.6027 192 24.3023 192 25.1059C192 26.339 191.688 27.3851 191.065 28.2441C190.441 29.0893 189.596 29.7404 188.529 30.1977C187.476 30.641 186.271 30.8627 184.913 30.8627C184.013 30.8627 183.195 30.7865 182.461 30.6341C181.726 30.4955 181.02 30.2808 180.341 29.9898L179.447 24.6903H180.466L183.438 30.1353L181.027 28.5766C181.526 28.8122 181.962 28.9923 182.336 29.117C182.724 29.2417 183.084 29.3317 183.417 29.3871C183.763 29.4287 184.11 29.4495 184.456 29.4495C185.717 29.4495 186.735 29.1932 187.511 28.6805C188.287 28.154 188.675 27.3643 188.675 26.3113C188.675 25.7987 188.557 25.3553 188.321 24.9812C188.086 24.6072 187.76 24.2816 187.345 24.0045C186.929 23.7135 186.437 23.4433 185.869 23.1939C185.315 22.9446 184.712 22.6813 184.061 22.4042C183.202 22.044 182.461 21.6214 181.837 21.1365C181.228 20.6515 180.757 20.0696 180.424 19.3907C180.105 18.698 179.946 17.8736 179.946 16.9176C179.946 15.7954 180.23 14.8463 180.798 14.0704C181.38 13.2807 182.156 12.678 183.126 12.2623C184.11 11.8467 185.197 11.6388 186.389 11.6388Z" fill="#202020"/>
</svg>
