<svg width="14" height="13" viewBox="0 0 14 13" fill="none" xmlns="http://www.w3.org/2000/svg">
<path d="M0.833374 3.68624C0.833374 2.32841 2.01542 0.666626 3.91059 0.666626C4.68314 0.666626 5.42781 1.15992 6.11867 1.86012C6.60294 2.35093 7.39728 2.35093 7.88155 1.86012C8.57243 1.1599 9.31696 0.666626 10.0895 0.666626C11.9846 0.666626 13.1667 2.32854 13.1667 3.68624C13.1667 5.14305 12.3704 6.60782 11.1703 7.99894C9.97767 9.38138 8.44373 10.6252 7.09028 11.636C7.03563 11.6768 6.96444 11.6768 6.90979 11.636C5.55636 10.6253 4.02243 9.38152 2.82981 7.99911C1.62971 6.60802 0.833374 5.14322 0.833374 3.68624Z" stroke="#202020"/>
</svg>
